<mxfile host="app.diagrams.net" modified="2023-12-27T16:54:38.992Z" agent="Mozilla/5.0 (X11; Ubuntu; Linux x86_64; rv:120.0) Gecko/20100101 Firefox/120.0" version="22.1.15" etag="QerZ0GnjbI9NTyqOkfUZ" type="github">
  <diagram name="Page-1" id="ORhG54Dsvm9Lx_MRsqvu">
    <mxGraphModel>
      <root>
        <mxCell id="0" />
        <mxCell id="1" parent="0" />
      </root>
    </mxGraphModel>
  </diagram>
</mxfile>
